<svg id="Layer_1" data-name="Layer 1" xmlns="http://www.w3.org/2000/svg" viewBox="0 0 98.17 54.02"><defs><style>.cls-1{fill:#6c6c6c;}</style></defs><title>Untitled-1</title><path class="cls-1" d="M209.12,195c-31.19-31.21-63.68-30.14-93.76.19-2.23,2.25-3.28,4.18-.57,6.9C128,215.34,143,225.11,162.46,226c19-1,33.76-10.44,46.85-23.36C212.24,199.75,211.86,197.72,209.12,195Zm-46.79-18.8c13.93,0,20.87,5.69,20.62,16.89-.23,10.77-9.89,20.24-20.64,20.25s-20.37-9.44-20.61-20.25C141.45,181.83,148.36,176.17,162.33,176.18Zm25.5,37.64c-25.06,15.24-47.18,6-66.44-11.35-3.23-2.9-2.54-5.09.37-7.51,5-4.16,9.86-8.55,17.12-11.73-3.25,12.75-.56,22.8,9.73,29.91,8.42,5.82,17.51,6.19,26.22.81,11.31-7,14.2-17.63,11.11-30.89,7.9,4.42,18.2,8.33,18.65,15.74C205,205.9,194.5,209.77,187.83,213.82Z" transform="translate(-113.17 -171.99)"/><path class="cls-1" d="M161.76,203.11c6.37-.54,10.52-3.7,10.75-10.18.22-6-3.35-9.84-9.18-10.39-6.45-.62-10.63,3.05-11.18,9.4S155.62,201.89,161.76,203.11Z" transform="translate(-113.17 -171.99)"/></svg>